<?xml version="1.0" encoding="UTF-8"?><svg xmlns="http://www.w3.org/2000/svg" viewBox="0 0 34.97 29.26"><defs><style>.d{fill:#00843a;}.e{fill:#00a140;stroke:#077c35;stroke-miterlimit:10;}</style></defs><g id="a"/><g id="b"><g id="c"><g><path class="e" d="M33.02,17.12s.26-6.79-5.43-7.48c0,0,5-5.66,6.3-5.89l-3.08-2.86s-2.12,6.21-4.3,7.76c0,0-.43-5.19-7.17-6.15,0,0-9.25-1.83-12.78,8.52,0,0-1.42,7.52-5.73,11.19,0,0,10.99,7.13,19.67,6.52-2.13-1-3.4-3.35-2.94-5.77,.54-2.87,3.31-4.76,6.18-4.22s4.76,3.31,4.22,6.18c-.15,.79-.47,1.5-.91,2.11,1.63-.83,5.62-3.49,5.96-9.92Z"/><path class="d" d="M6.18,20.04s3.89,1.42,5.23-.38c0,0,2.11,1.03,1.49,4.06,0,0,.86-3.14-.39-6,0,0,5.14-8.31,10.58-5.24,0,0,3.64,2.94,4.03,4.48s-.52-2.51-2.28-5.15c0,0,.21-2.48,2.82-2.14,0,0-1.82-2.6-4.73-1.31,0,0-8.45-2.44-12.43,1.11,0,0,5.03-.83,8.67,.75,0,0-2.69,1.17-5.22,4.89,0,0-1.56,1.02-3.33-.42,0,0,.78,1.41,1.42,1.89,0,0-1.65,2.78-5.86,3.45Z"/></g></g></g></svg>